<svg width="665" height="106" xmlns="http://www.w3.org/2000/svg"><g fill="none" fill-rule="evenodd"><path d="M143.121 76.22V27.657h21.843c10.533 0 18.308 6.786 18.308 16.4 0 9.613-7.775 16.4-18.308 16.4h-11.452V76.22h-10.39zm10.391-25.307h10.321c5.16 0 8.695-2.686 8.695-6.856s-3.535-6.857-8.695-6.857h-10.32v13.713zm55.214-12.087c7.917 0 13.572 5.867 13.572 14.137V76.22h-9.967V55.155c0-4.524-2.828-7.635-6.928-7.635-4.312 0-7.634 3.11-7.634 7.07v21.63h-10.32V26.809h10.32v17.318c2.262-3.18 6.291-5.301 10.957-5.301zm36.692 0c9.543 0 16.047 6.008 16.047 15.551V76.22h-9.967v-3.676c-2.616 2.97-6.787 4.524-10.745 4.524-7.776 0-13.784-4.665-13.784-11.663 0-7.21 6.715-12.159 15.198-12.159 2.969 0 6.22.636 9.33 1.838v-.707c0-3.888-2.403-7.28-8.411-7.28-3.393 0-6.574 1.13-9.473 2.615l-3.463-6.857c5.16-2.615 10.179-4.03 15.268-4.03zm-2.332 31.103c3.958 0 7.705-1.838 8.412-5.231v-3.393c-2.333-.849-5.02-1.343-7.847-1.343-3.746 0-6.715 2.191-6.715 5.16 0 2.969 2.615 4.807 6.15 4.807zm51.608-30.255h10.39v32.658c0 9.402-8.128 16.046-19.65 16.046-6.433 0-12.512-2.05-16.118-4.877l3.606-7.281c2.403 2.12 6.644 3.464 10.886 3.464 6.644 0 10.886-3.04 10.886-7.776v-4.03c-2.899 3.535-7.281 5.656-12.088 5.656-9.19 0-16.188-7.21-16.188-17.39 0-10.179 6.998-17.318 16.188-17.318 4.948 0 9.614 2.332 12.088 5.796v-4.948zm-8.836 25.165c5.16 0 8.836-3.605 8.836-8.695s-3.676-8.624-8.836-8.624-8.836 3.535-8.836 8.624c0 5.09 3.675 8.695 8.836 8.695zm43.62 3.11c2.898 0 6.432-1.343 8.412-3.251l6.574 6.715c-3.252 3.393-9.543 5.655-14.916 5.655-10.886 0-19.368-7.988-19.368-19.227 0-11.027 8.129-19.015 18.803-19.015 11.452 0 18.167 8.694 18.167 22.479h-26.367c1.202 3.958 4.383 6.644 8.695 6.644zm-.07-20.004c-3.889 0-7.14 2.262-8.484 5.937h16.33c-.99-3.605-3.676-5.937-7.847-5.937zm42.776 28.275V27.657h16.4c15.41 0 26.296 10.038 26.296 24.246 0 14.209-10.886 24.317-26.296 24.317h-16.4zm5.514-5.019h10.886c12.159 0 20.712-7.988 20.712-19.298 0-11.24-8.553-19.227-20.712-19.227h-10.886V71.2zM425.49 33.03c-1.98 0-3.534-1.626-3.534-3.534 0-1.838 1.555-3.464 3.534-3.464 1.909 0 3.464 1.626 3.464 3.464 0 1.908-1.555 3.534-3.464 3.534zm-2.686 43.191V39.674h5.301V76.22h-5.301zm19.869-29.406c2.191-4.878 7.422-7.988 14.137-7.988v4.736c-8.27 0-14.137 5.09-14.137 12.229V76.22h-5.302V39.674h5.302v7.14zm36.056 25.518c4.312 0 9.26-1.908 11.523-4.383l3.251 3.464c-3.18 3.464-9.613 5.655-14.703 5.655-9.755 0-18.52-7.988-18.52-19.227 0-10.886 8.2-19.015 18.025-19.015 11.028 0 17.319 8.341 17.319 21.136h-29.901c.777 7.14 5.796 12.37 13.006 12.37zm-.212-28.77c-6.503 0-11.734 4.595-12.724 11.663h24.6c-.707-6.574-4.595-11.663-11.876-11.663zm40.864 33.506c-10.25 0-18.945-8.765-18.945-19.156 0-10.392 8.695-19.086 18.945-19.086 4.948 0 9.543 2.05 13.006 5.372l-3.676 3.605c-2.403-2.615-5.725-4.241-9.33-4.241-7.281 0-13.36 6.574-13.36 14.35 0 7.846 6.079 14.42 13.36 14.42 3.675 0 7.068-1.696 9.543-4.453l3.675 3.605c-3.463 3.464-8.129 5.584-13.218 5.584zm35.49-6.22l2.616 3.887a11.108 11.108 0 0 1-6.786 2.333c-5.23 0-8.907-3.888-8.907-9.33V44.41h-5.725v-4.736h5.725V29.636h5.302v10.038h8.977v4.736h-8.977v23.327c0 2.687 1.838 4.595 3.958 4.595 1.626 0 3.04-.636 3.818-1.484zm25.171 6.22c-10.25 0-18.944-8.765-18.944-19.156 0-10.392 8.694-19.086 18.944-19.086 10.25 0 18.874 8.694 18.874 19.086 0 10.39-8.624 19.156-18.874 19.156zm0-4.736c7.21 0 13.29-6.574 13.29-14.42 0-7.776-6.08-14.35-13.29-14.35-7.28 0-13.36 6.574-13.36 14.35 0 7.846 6.08 14.42 13.36 14.42zm31.533-25.518c2.191-4.878 7.422-7.988 14.137-7.988v4.736c-8.27 0-14.137 5.09-14.137 12.229V76.22h-5.302V39.674h5.302v7.14zm25.029 42.13c-2.12 0-4.1-.424-5.797-1.202l1.273-4.524c1.272.636 2.757.92 4.312.92 2.332 0 3.888-.779 5.301-3.253l2.121-4.524-15.905-36.687h5.867L646.57 70.07l12.088-30.396h5.725L647.701 80.32c-2.545 6.22-6.08 8.553-11.098 8.624z" fill="#2C2C2C"/><path d="M54.243 12.33l41.322 9.02a10 10 0 0 1 7.526 7.183l9.567 35.704a10 10 0 0 1-2.927 9.983l-31.275 28.472a10 10 0 0 1-8.865 2.375l-41.322-9.02a10 10 0 0 1-7.526-7.182l-9.567-35.704a10 10 0 0 1 2.927-9.983L45.38 14.706a10 10 0 0 1 8.864-2.375z" fill="#374F6A"/><path d="M43.457.514l41.322 9.02a10 10 0 0 1 7.526 7.182l9.567 35.705a10 10 0 0 1-2.927 9.983L67.67 90.876a10 10 0 0 1-8.865 2.375l-41.321-9.02a10 10 0 0 1-7.527-7.182L.39 41.345a10 10 0 0 1 2.928-9.983L34.593 2.89A10 10 0 0 1 43.457.514z" fill="#71EFF5"/></g></svg>